<?xml version="1.0" standalone="no"?>
<!DOCTYPE svg PUBLIC "-//W3C//DTD SVG 20010904//EN"
 "http://www.w3.org/TR/2001/REC-SVG-20010904/DTD/svg10.dtd">
<svg version="1.0" xmlns="http://www.w3.org/2000/svg"
 width="256.000000pt" height="256.000000pt" viewBox="0 0 256.000000 256.000000"
 preserveAspectRatio="xMidYMid meet">

<g transform="translate(0.000000,256.000000) scale(0.100000,-0.100000)"
fill="#000000" stroke="none">
<path d="M44 2267 c-64 -58 -55 -152 19 -197 31 -19 59 -20 1215 -20 1306 0
1221 -4 1262 63 34 56 20 122 -36 166 l-27 21 -1198 0 -1199 0 -36 -33z"/>
<path d="M70 1392 c-92 -49 -90 -181 4 -226 32 -15 132 -16 1218 -14 l1183 3
32 23 c67 48 67 156 0 204 l-32 23 -1185 3 c-1135 2 -1186 1 -1220 -16z"/>
<path d="M63 490 c-79 -48 -82 -150 -7 -209 l27 -21 1197 0 1197 0 27 21 c56
44 70 110 36 166 -41 67 44 63 -1262 63 -1156 0 -1184 -1 -1215 -20z"/>
</g>
</svg>
